<svg xmlns="http://www.w3.org/2000/svg" width="800" height="600"><rect width="800" height="600" x="0" y="0" fill="#FFFFFF" id="background"/><g id="viz"><g transform="translate(0,0)"><g transform="translate(10,20)"><g><path fill="#ff7f0e" d="M0,426.2404762824445C11.818181818181818,426.2404762824445,11.818181818181818,418.9638388671556,23.636363636363637,418.9638388671556C35.45454545454545,418.9638388671556,35.45454545454545,421.94062164768883,47.27272727272727,421.94062164768883C59.09090909090909,421.94062164768883,59.09090909090909,413.7568929380445,70.9090909090909,413.7568929380445C82.72727272727272,413.7568929380445,82.72727272727272,406.18565600542223,94.54545454545455,406.18565600542223C106.36363636363637,406.18565600542223,106.36363636363637,406.35919993604443,118.18181818181819,406.35919993604443C130,406.35919993604443,130,406.716832396,141.8181818181818,406.716832396C153.63636363636363,406.716832396,153.63636363636363,405.0998924830667,165.45454545454547,405.0998924830667C177.27272727272728,405.0998924830667,177.27272727272728,394.3212240880889,189.0909090909091,394.3212240880889C200.9090909090909,394.3212240880889,200.9090909090909,401.5100946126667,212.72727272727272,401.5100946126667C224.54545454545456,401.5100946126667,224.54545454545456,394.26017117075554,236.36363636363637,394.26017117075554C248.1818181818182,394.26017117075554,248.1818181818182,404.1015023543556,260,404.1015023543556C271.8181818181818,404.1015023543556,271.8181818181818,420.4782389468889,283.6363636363636,420.4782389468889C295.45454545454544,420.4782389468889,295.45454545454544,423.9718142199556,307.27272727272725,423.9718142199556C319.0909090909091,423.9718142199556,319.0909090909091,408.2428615993777,330.90909090909093,408.2428615993777C342.72727272727275,408.2428615993777,342.72727272727275,404.2599421724889,354.54545454545456,404.2599421724889C366.3636363636364,404.2599421724889,366.3636363636364,405.88721102626675,378.1818181818182,405.88721102626675C390,405.88721102626675,390,405.55258594448884,401.8181818181818,405.55258594448884C413.6363636363636,405.55258594448884,413.6363636363636,393.623525848,425.45454545454544,393.623525848C437.27272727272725,393.623525848,437.27272727272725,375.9924635391555,449.0909090909091,375.9924635391555C460.90909090909093,375.9924635391555,460.90909090909093,358.63603425035564,472.72727272727275,358.63603425035564C484.54545454545456,358.63603425035564,484.54545454545456,363.57084843955556,496.3636363636364,363.57084843955556C508.1818181818182,363.57084843955556,508.1818181818182,339.03753400719995,520,339.03753400719995C531.8181818181818,339.03753400719995,531.8181818181818,310.82249153231106,543.6363636363636,310.82249153231106C555.4545454545455,310.82249153231106,555.4545454545455,291.5504641252,567.2727272727273,291.5504641252C579.090909090909,291.5504641252,579.090909090909,287.789442276,590.9090909090909,287.789442276C602.7272727272727,287.789442276,602.7272727272727,272.1484743733778,614.5454545454545,272.1484743733778C626.3636363636364,272.1484743733778,626.3636363636364,267.8125413827111,638.1818181818182,267.8125413827111C650,267.8125413827111,650,251.47434673168888,661.8181818181819,251.47434673168888C673.6363636363637,251.47434673168888,673.6363636363637,239.06169356937778,685.4545454545455,239.06169356937778C697.2727272727273,239.06169356937778,697.2727272727273,208.4132346915111,709.0909090909091,208.4132346915111C720.909090909091,208.4132346915111,720.909090909091,204.83236100724446,732.7272727272727,204.83236100724446C744.5454545454545,204.83236100724446,744.5454545454545,196.62488750924447,756.3636363636364,196.62488750924447C768.1818181818182,196.62488750924447,768.1818181818182,149.78290277813335,780,149.78290277813335L780,275.96375640804445C768.1818181818182,275.96375640804445,768.1818181818182,305.78304114244446,756.3636363636364,305.78304114244446C744.5454545454545,305.78304114244446,744.5454545454545,330.1920888634667,732.7272727272727,330.1920888634667C720.909090909091,330.1920888634667,720.909090909091,330.7005069912444,709.0909090909091,330.7005069912444C697.2727272727273,330.7005069912444,697.2727272727273,351.93815711599996,685.4545454545455,351.93815711599996C673.6363636363637,351.93815711599996,673.6363636363637,374.72898532159996,661.8181818181819,374.72898532159996C650,374.72898532159996,650,384.07483507244444,638.1818181818182,384.07483507244444C626.3636363636364,384.07483507244444,626.3636363636364,400.8018601188,614.5454545454545,400.8018601188C602.7272727272727,400.8018601188,602.7272727272727,409.203325062,590.9090909090909,409.203325062C579.090909090909,409.203325062,579.090909090909,427.5678832354222,567.2727272727273,427.5678832354222C555.4545454545455,427.5678832354222,555.4545454545455,443.69240007835555,543.6363636363636,443.69240007835555C531.8181818181818,443.69240007835555,531.8181818181818,458.59457946742225,520,458.59457946742225C508.1818181818182,458.59457946742225,508.1818181818182,475.8137162314667,496.3636363636364,475.8137162314667C484.54545454545456,475.8137162314667,484.54545454545456,493.8725761296444,472.72727272727275,493.8725761296444C460.90909090909093,493.8725761296444,460.90909090909093,502.6505737900889,449.0909090909091,502.6505737900889C437.27272727272725,502.6505737900889,437.27272727272725,510.3136071351111,425.45454545454544,510.3136071351111C413.6363636363636,510.3136071351111,413.6363636363636,517.3256244280444,401.8181818181818,517.3256244280444C390,517.3256244280444,390,523.5666719030222,378.1818181818182,523.5666719030222C366.3636363636364,523.5666719030222,366.3636363636364,525.4700154140888,354.54545454545456,525.4700154140888C342.72727272727275,525.4700154140888,342.72727272727275,531.8444832424889,330.90909090909093,531.8444832424889C319.0909090909091,531.8444832424889,319.0909090909091,537.7144853717778,307.27272727272725,537.7144853717778C295.45454545454544,537.7144853717778,295.45454545454544,539.6773978291111,283.6363636363636,539.6773978291111C271.8181818181818,539.6773978291111,271.8181818181818,540.9410237855556,260,540.9410237855556C248.1818181818182,540.9410237855556,248.1818181818182,540.2642351001778,236.36363636363637,540.2642351001778C224.54545454545456,540.2642351001778,224.54545454545456,542.6196777776444,212.72727272727272,542.6196777776444C200.9090909090909,542.6196777776444,200.9090909090909,544.2673086405333,189.0909090909091,544.2673086405333C177.27272727272728,544.2673086405333,177.27272727272728,547.4106490735555,165.45454545454547,547.4106490735555C153.63636363636363,547.4106490735555,153.63636363636363,550.0885543393333,141.8181818181818,550.0885543393333C130,550.0885543393333,130,549.2276522951555,118.18181818181819,549.2276522951555C106.36363636363637,549.2276522951555,106.36363636363637,550.4564183396444,94.54545454545455,550.4564183396444C82.72727272727272,550.4564183396444,82.72727272727272,551.0766154687111,70.9090909090909,551.0766154687111C59.09090909090909,551.0766154687111,59.09090909090909,551.8104206094666,47.27272727272727,551.8104206094666C35.45454545454545,551.8104206094666,35.45454545454545,552.5861257507112,23.636363636363637,552.5861257507112C11.818181818181818,552.5861257507112,11.818181818181818,552.3491944895555,0,552.3491944895555Z"><title>Hydro</title></path><path fill="#9467bd" d="M0,559.4905650267111C11.818181818181818,559.4905650267111,11.818181818181818,559.5091363487111,23.636363636363637,559.5091363487111C35.45454545454545,559.5091363487111,35.45454545454545,559.4779315636,47.27272727272727,559.4779315636C59.09090909090909,559.4779315636,59.09090909090909,559.4444058777779,70.9090909090909,559.4444058777779C82.72727272727272,559.4444058777779,82.72727272727272,559.4686716198222,94.54545454545455,559.4686716198222C106.36363636363637,559.4686716198222,106.36363636363637,559.4738196721333,118.18181818181819,559.4738196721333C130,559.4738196721333,130,559.4303859781778,141.8181818181818,559.4303859781778C153.63636363636363,559.4303859781778,153.63636363636363,559.4249767586666,165.45454545454547,559.4249767586666C177.27272727272728,559.4249767586666,177.27272727272728,559.3972630627111,189.0909090909091,559.3972630627111C200.9090909090909,559.3972630627111,200.9090909090909,559.3714830013333,212.72727272727272,559.3714830013333C224.54545454545456,559.3714830013333,224.54545454545456,559.3630924339111,236.36363636363637,559.3630924339111C248.1818181818182,559.3630924339111,248.1818181818182,559.3695103630666,260,559.3695103630666C271.8181818181818,559.3695103630666,271.8181818181818,559.3538934358667,283.6363636363636,559.3538934358667C295.45454545454544,559.3538934358667,295.45454545454544,559.2957285511555,307.27272727272725,559.2957285511555C319.0909090909091,559.2957285511555,319.0909090909091,559.1959603281333,330.90909090909093,559.1959603281333C342.72727272727275,559.1959603281333,342.72727272727275,559.0810982742222,354.54545454545456,559.0810982742222C366.3636363636364,559.0810982742222,366.3636363636364,559.0261222276889,378.1818181818182,559.0261222276889C390,559.0261222276889,390,558.8273537379556,401.8181818181818,558.8273537379556C413.6363636363636,558.8273537379556,413.6363636363636,558.4833489047555,425.45454545454544,558.4833489047555C437.27272727272725,558.4833489047555,437.27272727272725,557.7367620110223,449.0909090909091,557.7367620110223C460.90909090909093,557.7367620110223,460.90909090909093,556.7195318909778,472.72727272727275,556.7195318909778C484.54545454545456,556.7195318909778,484.54545454545456,553.1017860896889,496.3636363636364,553.1017860896889C508.1818181818182,553.1017860896889,508.1818181818182,549.2082606487555,520,549.2082606487555C531.8181818181818,549.2082606487555,531.8181818181818,544.0014879130222,543.6363636363636,544.0014879130222C555.4545454545455,544.0014879130222,555.4545454545455,540.4284701028889,567.2727272727273,540.4284701028889C579.090909090909,540.4284701028889,579.090909090909,537.0173017340444,590.9090909090909,537.0173017340444C602.7272727272727,537.0173017340444,602.7272727272727,532.8328662567556,614.5454545454545,532.8328662567556C626.3636363636364,532.8328662567556,626.3636363636364,533.6231353282667,638.1818181818182,533.6231353282667C650,533.6231353282667,650,531.4696738036,661.8181818181819,531.4696738036C673.6363636363637,531.4696738036,673.6363636363637,528.1752042793333,685.4545454545455,528.1752042793333C697.2727272727273,528.1752042793333,697.2727272727273,520.7993620959111,709.0909090909091,520.7993620959111C720.909090909091,520.7993620959111,720.909090909091,514.9501082021334,732.7272727272727,514.9501082021334C744.5454545454545,514.9501082021334,744.5454545454545,498.2195462953333,756.3636363636364,498.2195462953333C768.1818181818182,498.2195462953333,768.1818181818182,479.3069671204889,780,479.3069671204889L780,559.1296353293777C768.1818181818182,559.1296353293777,768.1818181818182,559.0171220215556,756.3636363636364,559.0171220215556C744.5454545454545,559.0171220215556,744.5454545454545,559.0002724954667,732.7272727272727,559.0002724954667C720.909090909091,559.0002724954667,720.909090909091,558.9074151683556,709.0909090909091,558.9074151683556C697.2727272727273,558.9074151683556,697.2727272727273,558.9304359162222,685.4545454545455,558.9304359162222C673.6363636363637,558.9304359162222,673.6363636363637,559.1613458924888,661.8181818181819,559.1613458924888C650,559.1613458924888,650,559.1767099392445,638.1818181818182,559.1767099392445C626.3636363636364,559.1767099392445,626.3636363636364,559.1844380434667,614.5454545454545,559.1844380434667C602.7272727272727,559.1844380434667,602.7272727272727,559.1531685855111,590.9090909090909,559.1531685855111C579.090909090909,559.1531685855111,579.090909090909,559.1720473836,567.2727272727273,559.1720473836C555.4545454545455,559.1720473836,555.4545454545455,559.2298441258667,543.6363636363636,559.2298441258667C531.8181818181818,559.2298441258667,531.8181818181818,559.2788096550667,520,559.2788096550667C508.1818181818182,559.2788096550667,508.1818181818182,559.2540621437778,496.3636363636364,559.2540621437778C484.54545454545456,559.2540621437778,484.54545454545456,559.2913388424445,472.72727272727275,559.2913388424445C460.90909090909093,559.2913388424445,460.90909090909093,559.2789084064,449.0909090909091,559.2789084064C437.27272727272725,559.2789084064,437.27272727272725,559.2916662722666,425.45454545454544,559.2916662722666C413.6363636363636,559.2916662722666,413.6363636363636,559.2747756586667,401.8181818181818,559.2747756586667C390,559.2747756586667,390,559.3539678047999,378.1818181818182,559.3539678047999C366.3636363636364,559.3539678047999,366.3636363636364,559.3646696991111,354.54545454545456,559.3646696991111C342.72727272727275,559.3646696991111,342.72727272727275,559.3422448413334,330.90909090909093,559.3422448413334C319.0909090909091,559.3422448413334,319.0909090909091,559.3320396253333,307.27272727272725,559.3320396253333C295.45454545454544,559.3320396253333,295.45454545454544,559.3816581826667,283.6363636363636,559.3816581826667C271.8181818181818,559.3816581826667,271.8181818181818,559.3888940017778,260,559.3888940017778C248.1818181818182,559.3888940017778,248.1818181818182,559.3709228504445,236.36363636363637,559.3709228504445C224.54545454545456,559.3709228504445,224.54545454545456,559.3832080542222,212.72727272727272,559.3832080542222C200.9090909090909,559.3832080542222,200.9090909090909,559.4034999062222,189.0909090909091,559.4034999062222C177.27272727272728,559.4034999062222,177.27272727272728,559.4300982056889,165.45454545454547,559.4300982056889C153.63636363636363,559.4300982056889,153.63636363636363,559.43584536,141.8181818181818,559.43584536C130,559.43584536,130,559.478899775911,118.18181818181819,559.478899775911C106.36363636363637,559.478899775911,106.36363636363637,559.4719738066667,94.54545454545455,559.4719738066667C82.72727272727272,559.4719738066667,82.72727272727272,559.4478273082223,70.9090909090909,559.4478273082223C59.09090909090909,559.4478273082223,59.09090909090909,559.4813147124445,47.27272727272727,559.4813147124445C35.45454545454545,559.4813147124445,35.45454545454545,559.5111472794666,23.636363636363637,559.5111472794666C11.818181818181818,559.5111472794666,11.818181818181818,559.4926231844445,0,559.4926231844445Z"><title>Solar</title></path><path fill="#8c564b" d="M0,552.3491944895555C11.818181818181818,552.3491944895555,11.818181818181818,552.5861257507112,23.636363636363637,552.5861257507112C35.45454545454545,552.5861257507112,35.45454545454545,551.8104206094666,47.27272727272727,551.8104206094666C59.09090909090909,551.8104206094666,59.09090909090909,551.0766154687111,70.9090909090909,551.0766154687111C82.72727272727272,551.0766154687111,82.72727272727272,550.4564183396444,94.54545454545455,550.4564183396444C106.36363636363637,550.4564183396444,106.36363636363637,549.2276522951555,118.18181818181819,549.2276522951555C130,549.2276522951555,130,550.0885543393333,141.8181818181818,550.0885543393333C153.63636363636363,550.0885543393333,153.63636363636363,547.4106490735555,165.45454545454547,547.4106490735555C177.27272727272728,547.4106490735555,177.27272727272728,544.2673086405333,189.0909090909091,544.2673086405333C200.9090909090909,544.2673086405333,200.9090909090909,542.6196777776444,212.72727272727272,542.6196777776444C224.54545454545456,542.6196777776444,224.54545454545456,540.2642351001778,236.36363636363637,540.2642351001778C248.1818181818182,540.2642351001778,248.1818181818182,540.9410237855556,260,540.9410237855556C271.8181818181818,540.9410237855556,271.8181818181818,539.6773978291111,283.6363636363636,539.6773978291111C295.45454545454544,539.6773978291111,295.45454545454544,537.7144853717778,307.27272727272725,537.7144853717778C319.0909090909091,537.7144853717778,319.0909090909091,531.8444832424889,330.90909090909093,531.8444832424889C342.72727272727275,531.8444832424889,342.72727272727275,525.4700154140888,354.54545454545456,525.4700154140888C366.3636363636364,525.4700154140888,366.3636363636364,523.5666719030222,378.1818181818182,523.5666719030222C390,523.5666719030222,390,517.3256244280444,401.8181818181818,517.3256244280444C413.6363636363636,517.3256244280444,413.6363636363636,510.3136071351111,425.45454545454544,510.3136071351111C437.27272727272725,510.3136071351111,437.27272727272725,502.6505737900889,449.0909090909091,502.6505737900889C460.90909090909093,502.6505737900889,460.90909090909093,493.8725761296444,472.72727272727275,493.8725761296444C484.54545454545456,493.8725761296444,484.54545454545456,475.8137162314667,496.3636363636364,475.8137162314667C508.1818181818182,475.8137162314667,508.1818181818182,458.59457946742225,520,458.59457946742225C531.8181818181818,458.59457946742225,531.8181818181818,443.69240007835555,543.6363636363636,443.69240007835555C555.4545454545455,443.69240007835555,555.4545454545455,427.5678832354222,567.2727272727273,427.5678832354222C579.090909090909,427.5678832354222,579.090909090909,409.203325062,590.9090909090909,409.203325062C602.7272727272727,409.203325062,602.7272727272727,400.8018601188,614.5454545454545,400.8018601188C626.3636363636364,400.8018601188,626.3636363636364,384.07483507244444,638.1818181818182,384.07483507244444C650,384.07483507244444,650,374.72898532159996,661.8181818181819,374.72898532159996C673.6363636363637,374.72898532159996,673.6363636363637,351.93815711599996,685.4545454545455,351.93815711599996C697.2727272727273,351.93815711599996,697.2727272727273,330.7005069912444,709.0909090909091,330.7005069912444C720.909090909091,330.7005069912444,720.909090909091,330.1920888634667,732.7272727272727,330.1920888634667C744.5454545454545,330.1920888634667,744.5454545454545,305.78304114244446,756.3636363636364,305.78304114244446C768.1818181818182,305.78304114244446,768.1818181818182,275.96375640804445,780,275.96375640804445L780,420.49676493471117C768.1818181818182,420.49676493471117,768.1818181818182,429.804320218,756.3636363636364,429.804320218C744.5454545454545,429.804320218,744.5454545454545,442.56472416924447,732.7272727272727,442.56472416924447C720.909090909091,442.56472416924447,720.909090909091,451.2587709043555,709.0909090909091,451.2587709043555C697.2727272727273,451.2587709043555,697.2727272727273,464.164191386,685.4545454545455,464.164191386C673.6363636363637,464.164191386,673.6363636363637,471.6487719884889,661.8181818181819,471.6487719884889C650,471.6487719884889,650,479.0460904967111,638.1818181818182,479.0460904967111C626.3636363636364,479.0460904967111,626.3636363636364,480.82220233320004,614.5454545454545,480.82220233320004C602.7272727272727,480.82220233320004,602.7272727272727,487.5296417873778,590.9090909090909,487.5296417873778C579.090909090909,487.5296417873778,579.090909090909,494.3465700771111,567.2727272727273,494.3465700771111C555.4545454545455,494.3465700771111,555.4545454545455,503.1128325156889,543.6363636363636,503.1128325156889C531.8181818181818,503.1128325156889,531.8181818181818,510.51142920120003,520,510.51142920120003C508.1818181818182,510.51142920120003,508.1818181818182,519.4484608363555,496.3636363636364,519.4484608363555C484.54545454545456,519.4484608363555,484.54545454545456,526.2534913038667,472.72727272727275,526.2534913038667C460.90909090909093,526.2534913038667,460.90909090909093,531.2145681434666,449.0909090909091,531.2145681434666C437.27272727272725,531.2145681434666,437.27272727272725,535.2590022783111,425.45454545454544,535.2590022783111C413.6363636363636,535.2590022783111,413.6363636363636,538.5903946472,401.8181818181818,538.5903946472C390,538.5903946472,390,540.2621691145778,378.1818181818182,540.2621691145778C366.3636363636364,540.2621691145778,366.3636363636364,541.0239199204,354.54545454545456,541.0239199204C342.72727272727275,541.0239199204,342.72727272727275,544.3391381941334,330.90909090909093,544.3391381941334C319.0909090909091,544.3391381941334,319.0909090909091,547.1905955506667,307.27272727272725,547.1905955506667C295.45454545454544,547.1905955506667,295.45454545454544,547.7782123709777,283.6363636363636,547.7782123709777C271.8181818181818,547.7782123709777,271.8181818181818,548.3492860617333,260,548.3492860617333C248.1818181818182,548.3492860617333,248.1818181818182,547.9185016259112,236.36363636363637,547.9185016259112C224.54545454545456,547.9185016259112,224.54545454545456,548.3804633458667,212.72727272727272,548.3804633458667C200.9090909090909,548.3804633458667,200.9090909090909,548.4583217879111,189.0909090909091,548.4583217879111C177.27272727272728,548.4583217879111,177.27272727272728,549.4636638633333,165.45454545454547,549.4636638633333C153.63636363636363,549.4636638633333,153.63636363636363,551.2592597963111,141.8181818181818,551.2592597963111C130,551.2592597963111,130,550.6156557138222,118.18181818181819,550.6156557138222C106.36363636363637,550.6156557138222,106.36363636363637,551.6624211653334,94.54545454545455,551.6624211653334C82.72727272727272,551.6624211653334,82.72727272727272,552.2448117728889,70.9090909090909,552.2448117728889C59.09090909090909,552.2448117728889,59.09090909090909,552.8632986653778,47.27272727272727,552.8632986653778C35.45454545454545,552.8632986653778,35.45454545454545,553.2772446208,23.636363636363637,553.2772446208C11.818181818181818,553.2772446208,11.818181818181818,553.119831552711,0,553.119831552711Z"><title>Wind</title></path><path fill="#2ca02c" d="M0,259.75789110911114C11.818181818181818,259.75789110911114,11.818181818181818,253.80485108937785,23.636363636363637,253.80485108937785C35.45454545454545,253.80485108937785,35.45454545454545,254.56473523879998,47.27272727272727,254.56473523879998C59.09090909090909,254.56473523879998,59.09090909090909,241.56097658248888,70.9090909090909,241.56097658248888C82.72727272727272,241.56097658248888,82.72727272727272,234.69116267208892,94.54545454545455,234.69116267208892C106.36363636363637,234.69116267208892,106.36363636363637,235.6701312693778,118.18181818181819,235.6701312693778C130,235.6701312693778,130,234.25264035600003,141.8181818181818,234.25264035600003C153.63636363636363,234.25264035600003,153.63636363636363,232.00692625195555,165.45454545454547,232.00692625195555C177.27272727272728,232.00692625195555,177.27272727272728,225.2764476436445,189.0909090909091,225.2764476436445C200.9090909090909,225.2764476436445,200.9090909090909,231.4312301015555,212.72727272727272,231.4312301015555C224.54545454545456,231.4312301015555,224.54545454545456,223.56201858853333,236.36363636363637,223.56201858853333C248.1818181818182,223.56201858853333,248.1818181818182,231.11494159880002,260,231.11494159880002C271.8181818181818,231.11494159880002,271.8181818181818,243.32017242244447,283.6363636363636,243.32017242244447C295.45454545454544,243.32017242244447,295.45454545454544,250.08264048662215,307.27272727272725,250.08264048662215C319.0909090909091,250.08264048662215,319.0909090909091,234.80175901715552,330.90909090909093,234.80175901715552C342.72727272727275,234.80175901715552,342.72727272727275,232.25770959471114,354.54545454545456,232.25770959471114C366.3636363636364,232.25770959471114,366.3636363636364,235.72014091515564,378.1818181818182,235.72014091515564C390,235.72014091515564,390,240.1994947933778,401.8181818181818,240.1994947933778C413.6363636363636,240.1994947933778,413.6363636363636,224.5705273591111,425.45454545454544,224.5705273591111C437.27272727272725,224.5705273591111,437.27272727272725,207.36788101026661,449.0909090909091,207.36788101026661C460.90909090909093,207.36788101026661,460.90909090909093,216.45457913924454,472.72727272727275,216.45457913924454C484.54545454545456,216.45457913924454,484.54545454545456,218.42322477733327,496.3636363636364,218.42322477733327C508.1818181818182,218.42322477733327,508.1818181818182,195.68508716275554,520,195.68508716275554C531.8181818181818,195.68508716275554,531.8181818181818,165.00050672342226,543.6363636363636,165.00050672342226C555.4545454545455,165.00050672342226,555.4545454545455,143.18037450297777,567.2727272727273,143.18037450297777C579.090909090909,143.18037450297777,579.090909090909,147.51990749377777,590.9090909090909,147.51990749377777C602.7272727272727,147.51990749377777,602.7272727272727,129.2167208089334,614.5454545454545,129.2167208089334C626.3636363636364,129.2167208089334,626.3636363636364,124.89137415159999,638.1818181818182,124.89137415159999C650,124.89137415159999,650,112.0987826961333,661.8181818181819,112.0987826961333C673.6363636363637,112.0987826961333,673.6363636363637,96.09048909382221,685.4545454545455,96.09048909382221C697.2727272727273,96.09048909382221,697.2727272727273,70.14799009151099,709.0909090909091,70.14799009151099C720.909090909091,70.14799009151099,720.909090909091,66.71285040279999,732.7272727272727,66.71285040279999C744.5454545454545,66.71285040279999,744.5454545454545,59.42978125591118,756.3636363636364,59.42978125591118C768.1818181818182,59.42978125591118,768.1818181818182,10.687616595911127,780,10.687616595911127L780,149.78290277813335C768.1818181818182,149.78290277813335,768.1818181818182,196.62488750924447,756.3636363636364,196.62488750924447C744.5454545454545,196.62488750924447,744.5454545454545,204.83236100724446,732.7272727272727,204.83236100724446C720.909090909091,204.83236100724446,720.909090909091,208.4132346915111,709.0909090909091,208.4132346915111C697.2727272727273,208.4132346915111,697.2727272727273,239.06169356937778,685.4545454545455,239.06169356937778C673.6363636363637,239.06169356937778,673.6363636363637,251.47434673168888,661.8181818181819,251.47434673168888C650,251.47434673168888,650,267.8125413827111,638.1818181818182,267.8125413827111C626.3636363636364,267.8125413827111,626.3636363636364,272.1484743733778,614.5454545454545,272.1484743733778C602.7272727272727,272.1484743733778,602.7272727272727,287.789442276,590.9090909090909,287.789442276C579.090909090909,287.789442276,579.090909090909,291.5504641252,567.2727272727273,291.5504641252C555.4545454545455,291.5504641252,555.4545454545455,310.82249153231106,543.6363636363636,310.82249153231106C531.8181818181818,310.82249153231106,531.8181818181818,339.03753400719995,520,339.03753400719995C508.1818181818182,339.03753400719995,508.1818181818182,363.57084843955556,496.3636363636364,363.57084843955556C484.54545454545456,363.57084843955556,484.54545454545456,358.63603425035564,472.72727272727275,358.63603425035564C460.90909090909093,358.63603425035564,460.90909090909093,375.9924635391555,449.0909090909091,375.9924635391555C437.27272727272725,375.9924635391555,437.27272727272725,393.623525848,425.45454545454544,393.623525848C413.6363636363636,393.623525848,413.6363636363636,405.55258594448884,401.8181818181818,405.55258594448884C390,405.55258594448884,390,405.88721102626675,378.1818181818182,405.88721102626675C366.3636363636364,405.88721102626675,366.3636363636364,404.2599421724889,354.54545454545456,404.2599421724889C342.72727272727275,404.2599421724889,342.72727272727275,408.2428615993777,330.90909090909093,408.2428615993777C319.0909090909091,408.2428615993777,319.0909090909091,423.9718142199556,307.27272727272725,423.9718142199556C295.45454545454544,423.9718142199556,295.45454545454544,420.4782389468889,283.6363636363636,420.4782389468889C271.8181818181818,420.4782389468889,271.8181818181818,404.1015023543556,260,404.1015023543556C248.1818181818182,404.1015023543556,248.1818181818182,394.26017117075554,236.36363636363637,394.26017117075554C224.54545454545456,394.26017117075554,224.54545454545456,401.5100946126667,212.72727272727272,401.5100946126667C200.9090909090909,401.5100946126667,200.9090909090909,394.3212240880889,189.0909090909091,394.3212240880889C177.27272727272728,394.3212240880889,177.27272727272728,405.0998924830667,165.45454545454547,405.0998924830667C153.63636363636363,405.0998924830667,153.63636363636363,406.716832396,141.8181818181818,406.716832396C130,406.716832396,130,406.35919993604443,118.18181818181819,406.35919993604443C106.36363636363637,406.35919993604443,106.36363636363637,406.18565600542223,94.54545454545455,406.18565600542223C82.72727272727272,406.18565600542223,82.72727272727272,413.7568929380445,70.9090909090909,413.7568929380445C59.09090909090909,413.7568929380445,59.09090909090909,421.94062164768883,47.27272727272727,421.94062164768883C35.45454545454545,421.94062164768883,35.45454545454545,418.9638388671556,23.636363636363637,418.9638388671556C11.818181818181818,418.9638388671556,11.818181818181818,426.2404762824445,0,426.2404762824445Z"><title>Nuclear</title></path><path fill="#d62728" d="M0,559.4926231844445C11.818181818181818,559.4926231844445,11.818181818181818,559.5111472794666,23.636363636363637,559.5111472794666C35.45454545454545,559.5111472794666,35.45454545454545,559.4813147124445,47.27272727272727,559.4813147124445C59.09090909090909,559.4813147124445,59.09090909090909,559.4478273082223,70.9090909090909,559.4478273082223C82.72727272727272,559.4478273082223,82.72727272727272,559.4719738066667,94.54545454545455,559.4719738066667C106.36363636363637,559.4719738066667,106.36363636363637,559.478899775911,118.18181818181819,559.478899775911C130,559.478899775911,130,559.43584536,141.8181818181818,559.43584536C153.63636363636363,559.43584536,153.63636363636363,559.4300982056889,165.45454545454547,559.4300982056889C177.27272727272728,559.4300982056889,177.27272727272728,559.4034999062222,189.0909090909091,559.4034999062222C200.9090909090909,559.4034999062222,200.9090909090909,559.3832080542222,212.72727272727272,559.3832080542222C224.54545454545456,559.3832080542222,224.54545454545456,559.3709228504445,236.36363636363637,559.3709228504445C248.1818181818182,559.3709228504445,248.1818181818182,559.3888940017778,260,559.3888940017778C271.8181818181818,559.3888940017778,271.8181818181818,559.3816581826667,283.6363636363636,559.3816581826667C295.45454545454544,559.3816581826667,295.45454545454544,559.3320396253333,307.27272727272725,559.3320396253333C319.0909090909091,559.3320396253333,319.0909090909091,559.3422448413334,330.90909090909093,559.3422448413334C342.72727272727275,559.3422448413334,342.72727272727275,559.3646696991111,354.54545454545456,559.3646696991111C366.3636363636364,559.3646696991111,366.3636363636364,559.3539678047999,378.1818181818182,559.3539678047999C390,559.3539678047999,390,559.2747756586667,401.8181818181818,559.2747756586667C413.6363636363636,559.2747756586667,413.6363636363636,559.2916662722666,425.45454545454544,559.2916662722666C437.27272727272725,559.2916662722666,437.27272727272725,559.2789084064,449.0909090909091,559.2789084064C460.90909090909093,559.2789084064,460.90909090909093,559.2913388424445,472.72727272727275,559.2913388424445C484.54545454545456,559.2913388424445,484.54545454545456,559.2540621437778,496.3636363636364,559.2540621437778C508.1818181818182,559.2540621437778,508.1818181818182,559.2788096550667,520,559.2788096550667C531.8181818181818,559.2788096550667,531.8181818181818,559.2298441258667,543.6363636363636,559.2298441258667C555.4545454545455,559.2298441258667,555.4545454545455,559.1720473836,567.2727272727273,559.1720473836C579.090909090909,559.1720473836,579.090909090909,559.1531685855111,590.9090909090909,559.1531685855111C602.7272727272727,559.1531685855111,602.7272727272727,559.1844380434667,614.5454545454545,559.1844380434667C626.3636363636364,559.1844380434667,626.3636363636364,559.1767099392445,638.1818181818182,559.1767099392445C650,559.1767099392445,650,559.1613458924888,661.8181818181819,559.1613458924888C673.6363636363637,559.1613458924888,673.6363636363637,558.9304359162222,685.4545454545455,558.9304359162222C697.2727272727273,558.9304359162222,697.2727272727273,558.9074151683556,709.0909090909091,558.9074151683556C720.909090909091,558.9074151683556,720.909090909091,559.0002724954667,732.7272727272727,559.0002724954667C744.5454545454545,559.0002724954667,744.5454545454545,559.0171220215556,756.3636363636364,559.0171220215556C768.1818181818182,559.0171220215556,768.1818181818182,559.1296353293777,780,559.1296353293777L780,560C768.1818181818182,560,768.1818181818182,560,756.3636363636364,560C744.5454545454545,560,744.5454545454545,560,732.7272727272727,560C720.909090909091,560,720.909090909091,560,709.0909090909091,560C697.2727272727273,560,697.2727272727273,560,685.4545454545455,560C673.6363636363637,560,673.6363636363637,560,661.8181818181819,560C650,560,650,560,638.1818181818182,560C626.3636363636364,560,626.3636363636364,560,614.5454545454545,560C602.7272727272727,560,602.7272727272727,560,590.9090909090909,560C579.090909090909,560,579.090909090909,560,567.2727272727273,560C555.4545454545455,560,555.4545454545455,560,543.6363636363636,560C531.8181818181818,560,531.8181818181818,560,520,560C508.1818181818182,560,508.1818181818182,560,496.3636363636364,560C484.54545454545456,560,484.54545454545456,560,472.72727272727275,560C460.90909090909093,560,460.90909090909093,560,449.0909090909091,560C437.27272727272725,560,437.27272727272725,560,425.45454545454544,560C413.6363636363636,560,413.6363636363636,560,401.8181818181818,560C390,560,390,560,378.1818181818182,560C366.3636363636364,560,366.3636363636364,560,354.54545454545456,560C342.72727272727275,560,342.72727272727275,560,330.90909090909093,560C319.0909090909091,560,319.0909090909091,560,307.27272727272725,560C295.45454545454544,560,295.45454545454544,560,283.6363636363636,560C271.8181818181818,560,271.8181818181818,560,260,560C248.1818181818182,560,248.1818181818182,560,236.36363636363637,560C224.54545454545456,560,224.54545454545456,560,212.72727272727272,560C200.9090909090909,560,200.9090909090909,560,189.0909090909091,560C177.27272727272728,560,177.27272727272728,560,165.45454545454547,560C153.63636363636363,560,153.63636363636363,560,141.8181818181818,560C130,560,130,560,118.18181818181819,560C106.36363636363637,560,106.36363636363637,560,94.54545454545455,560C82.72727272727272,560,82.72727272727272,560,70.9090909090909,560C59.09090909090909,560,59.09090909090909,560,47.27272727272727,560C35.45454545454545,560,35.45454545454545,560,23.636363636363637,560C11.818181818181818,560,11.818181818181818,560,0,560Z"><title>Other renewables excluding bioenergy</title></path><path fill="#1f77b4" d="M0,553.119831552711C11.818181818181818,553.119831552711,11.818181818181818,553.2772446208,23.636363636363637,553.2772446208C35.45454545454545,553.2772446208,35.45454545454545,552.8632986653778,47.27272727272727,552.8632986653778C59.09090909090909,552.8632986653778,59.09090909090909,552.2448117728889,70.9090909090909,552.2448117728889C82.72727272727272,552.2448117728889,82.72727272727272,551.6624211653334,94.54545454545455,551.6624211653334C106.36363636363637,551.6624211653334,106.36363636363637,550.6156557138222,118.18181818181819,550.6156557138222C130,550.6156557138222,130,551.2592597963111,141.8181818181818,551.2592597963111C153.63636363636363,551.2592597963111,153.63636363636363,549.4636638633333,165.45454545454547,549.4636638633333C177.27272727272728,549.4636638633333,177.27272727272728,548.4583217879111,189.0909090909091,548.4583217879111C200.9090909090909,548.4583217879111,200.9090909090909,548.3804633458667,212.72727272727272,548.3804633458667C224.54545454545456,548.3804633458667,224.54545454545456,547.9185016259112,236.36363636363637,547.9185016259112C248.1818181818182,547.9185016259112,248.1818181818182,548.3492860617333,260,548.3492860617333C271.8181818181818,548.3492860617333,271.8181818181818,547.7782123709777,283.6363636363636,547.7782123709777C295.45454545454544,547.7782123709777,295.45454545454544,547.1905955506667,307.27272727272725,547.1905955506667C319.0909090909091,547.1905955506667,319.0909090909091,544.3391381941334,330.90909090909093,544.3391381941334C342.72727272727275,544.3391381941334,342.72727272727275,541.0239199204,354.54545454545456,541.0239199204C366.3636363636364,541.0239199204,366.3636363636364,540.2621691145778,378.1818181818182,540.2621691145778C390,540.2621691145778,390,538.5903946472,401.8181818181818,538.5903946472C413.6363636363636,538.5903946472,413.6363636363636,535.2590022783111,425.45454545454544,535.2590022783111C437.27272727272725,535.2590022783111,437.27272727272725,531.2145681434666,449.0909090909091,531.2145681434666C460.90909090909093,531.2145681434666,460.90909090909093,526.2534913038667,472.72727272727275,526.2534913038667C484.54545454545456,526.2534913038667,484.54545454545456,519.4484608363555,496.3636363636364,519.4484608363555C508.1818181818182,519.4484608363555,508.1818181818182,510.51142920120003,520,510.51142920120003C531.8181818181818,510.51142920120003,531.8181818181818,503.1128325156889,543.6363636363636,503.1128325156889C555.4545454545455,503.1128325156889,555.4545454545455,494.3465700771111,567.2727272727273,494.3465700771111C579.090909090909,494.3465700771111,579.090909090909,487.5296417873778,590.9090909090909,487.5296417873778C602.7272727272727,487.5296417873778,602.7272727272727,480.82220233320004,614.5454545454545,480.82220233320004C626.3636363636364,480.82220233320004,626.3636363636364,479.0460904967111,638.1818181818182,479.0460904967111C650,479.0460904967111,650,471.6487719884889,661.8181818181819,471.6487719884889C673.6363636363637,471.6487719884889,673.6363636363637,464.164191386,685.4545454545455,464.164191386C697.2727272727273,464.164191386,697.2727272727273,451.2587709043555,709.0909090909091,451.2587709043555C720.909090909091,451.2587709043555,720.909090909091,442.56472416924447,732.7272727272727,442.56472416924447C744.5454545454545,442.56472416924447,744.5454545454545,429.804320218,756.3636363636364,429.804320218C768.1818181818182,429.804320218,768.1818181818182,420.49676493471117,780,420.49676493471117L780,479.3069671204889C768.1818181818182,479.3069671204889,768.1818181818182,498.2195462953333,756.3636363636364,498.2195462953333C744.5454545454545,498.2195462953333,744.5454545454545,514.9501082021334,732.7272727272727,514.9501082021334C720.909090909091,514.9501082021334,720.909090909091,520.7993620959111,709.0909090909091,520.7993620959111C697.2727272727273,520.7993620959111,697.2727272727273,528.1752042793333,685.4545454545455,528.1752042793333C673.6363636363637,528.1752042793333,673.6363636363637,531.4696738036,661.8181818181819,531.4696738036C650,531.4696738036,650,533.6231353282667,638.1818181818182,533.6231353282667C626.3636363636364,533.6231353282667,626.3636363636364,532.8328662567556,614.5454545454545,532.8328662567556C602.7272727272727,532.8328662567556,602.7272727272727,537.0173017340444,590.9090909090909,537.0173017340444C579.090909090909,537.0173017340444,579.090909090909,540.4284701028889,567.2727272727273,540.4284701028889C555.4545454545455,540.4284701028889,555.4545454545455,544.0014879130222,543.6363636363636,544.0014879130222C531.8181818181818,544.0014879130222,531.8181818181818,549.2082606487555,520,549.2082606487555C508.1818181818182,549.2082606487555,508.1818181818182,553.1017860896889,496.3636363636364,553.1017860896889C484.54545454545456,553.1017860896889,484.54545454545456,556.7195318909778,472.72727272727275,556.7195318909778C460.90909090909093,556.7195318909778,460.90909090909093,557.7367620110223,449.0909090909091,557.7367620110223C437.27272727272725,557.7367620110223,437.27272727272725,558.4833489047555,425.45454545454544,558.4833489047555C413.6363636363636,558.4833489047555,413.6363636363636,558.8273537379556,401.8181818181818,558.8273537379556C390,558.8273537379556,390,559.0261222276889,378.1818181818182,559.0261222276889C366.3636363636364,559.0261222276889,366.3636363636364,559.0810982742222,354.54545454545456,559.0810982742222C342.72727272727275,559.0810982742222,342.72727272727275,559.1959603281333,330.90909090909093,559.1959603281333C319.0909090909091,559.1959603281333,319.0909090909091,559.2957285511555,307.27272727272725,559.2957285511555C295.45454545454544,559.2957285511555,295.45454545454544,559.3538934358667,283.6363636363636,559.3538934358667C271.8181818181818,559.3538934358667,271.8181818181818,559.3695103630666,260,559.3695103630666C248.1818181818182,559.3695103630666,248.1818181818182,559.3630924339111,236.36363636363637,559.3630924339111C224.54545454545456,559.3630924339111,224.54545454545456,559.3714830013333,212.72727272727272,559.3714830013333C200.9090909090909,559.3714830013333,200.9090909090909,559.3972630627111,189.0909090909091,559.3972630627111C177.27272727272728,559.3972630627111,177.27272727272728,559.4249767586666,165.45454545454547,559.4249767586666C153.63636363636363,559.4249767586666,153.63636363636363,559.4303859781778,141.8181818181818,559.4303859781778C130,559.4303859781778,130,559.4738196721333,118.18181818181819,559.4738196721333C106.36363636363637,559.4738196721333,106.36363636363637,559.4686716198222,94.54545454545455,559.4686716198222C82.72727272727272,559.4686716198222,82.72727272727272,559.4444058777779,70.9090909090909,559.4444058777779C59.09090909090909,559.4444058777779,59.09090909090909,559.4779315636,47.27272727272727,559.4779315636C35.45454545454545,559.4779315636,35.45454545454545,559.5091363487111,23.636363636363637,559.5091363487111C11.818181818181818,559.5091363487111,11.818181818181818,559.4905650267111,0,559.4905650267111Z"><title>Bioenergy</title></path></g><g id="xAxis" transform="translate(0,560)" fill="none" font-size="10" font-family="sans-serif" text-anchor="middle"><path class="domain" stroke="currentColor" d="M0.5,0.5H780.5"/><g class="tick" opacity="1" transform="translate(0.5,0)"><line stroke="currentColor" y2="6"/><text fill="currentColor" y="9" dy="0.71em">1,990</text></g><g class="tick" opacity="1" transform="translate(118.68181818181819,0)"><line stroke="currentColor" y2="6"/><text fill="currentColor" y="9" dy="0.71em">1,995</text></g><g class="tick" opacity="1" transform="translate(236.86363636363637,0)"><line stroke="currentColor" y2="6"/><text fill="currentColor" y="9" dy="0.71em">2,000</text></g><g class="tick" opacity="1" transform="translate(355.04545454545456,0)"><line stroke="currentColor" y2="6"/><text fill="currentColor" y="9" dy="0.71em">2,005</text></g><g class="tick" opacity="1" transform="translate(473.22727272727275,0)"><line stroke="currentColor" y2="6"/><text fill="currentColor" y="9" dy="0.71em">2,010</text></g><g class="tick" opacity="1" transform="translate(591.4090909090909,0)"><line stroke="currentColor" y2="6"/><text fill="currentColor" y="9" dy="0.71em">2,015</text></g><g class="tick" opacity="1" transform="translate(709.5909090909091,0)"><line stroke="currentColor" y2="6"/><text fill="currentColor" y="9" dy="0.71em">2,020</text></g></g><g id="yAxis" fill="none" font-size="10" font-family="sans-serif" text-anchor="end"><path class="domain" stroke="currentColor" d="M0.5,560.5V0.5"/><g class="tick" opacity="1" transform="translate(0,560.5)"><line stroke="currentColor" x2="-6"/><text fill="currentColor" x="-9" dy="0.32em">0</text></g><g class="tick" opacity="1" transform="translate(0,498.27777777777777)"><line stroke="currentColor" x2="-6"/><text fill="currentColor" x="-9" dy="0.32em">200</text></g><g class="tick" opacity="1" transform="translate(0,436.05555555555554)"><line stroke="currentColor" x2="-6"/><text fill="currentColor" x="-9" dy="0.32em">400</text></g><g class="tick" opacity="1" transform="translate(0,373.83333333333337)"><line stroke="currentColor" x2="-6"/><text fill="currentColor" x="-9" dy="0.32em">600</text></g><g class="tick" opacity="1" transform="translate(0,311.61111111111114)"><line stroke="currentColor" x2="-6"/><text fill="currentColor" x="-9" dy="0.32em">800</text></g><g class="tick" opacity="1" transform="translate(0,249.38888888888889)"><line stroke="currentColor" x2="-6"/><text fill="currentColor" x="-9" dy="0.32em">1,000</text></g><g class="tick" opacity="1" transform="translate(0,187.16666666666669)"><line stroke="currentColor" x2="-6"/><text fill="currentColor" x="-9" dy="0.32em">1,200</text></g><g class="tick" opacity="1" transform="translate(0,124.94444444444444)"><line stroke="currentColor" x2="-6"/><text fill="currentColor" x="-9" dy="0.32em">1,400</text></g><g class="tick" opacity="1" transform="translate(0,62.72222222222225)"><line stroke="currentColor" x2="-6"/><text fill="currentColor" x="-9" dy="0.32em">1,600</text></g><g class="tick" opacity="1" transform="translate(0,0.5)"><line stroke="currentColor" x2="-6"/><text fill="currentColor" x="-9" dy="0.32em">1,800</text></g></g><text style="font-family: Arial, sans-serif; font-size: 12px; fill: rgb(123, 123, 123); font-weight: bold;" y="556" x="780" text-anchor="end">Year</text><text style="font-family: Arial, sans-serif; font-size: 12px; fill: rgb(123, 123, 123); font-weight: bold;" x="4" text-anchor="start" dominant-baseline="hanging">Value</text><g id="labels"><text x="189.0909090909091" y="469.29426636431117" text-anchor="middle" alignment-baseline="middle" style="font-family: Arial, sans-serif; font-size: 10px; fill: black; font-weight: bold;">Hydro</text><text x="780" y="519.2183012249333" text-anchor="end" alignment-baseline="middle" style="font-family: Arial, sans-serif; font-size: 10px; fill: black; font-weight: bold;">Solar</text><text x="780" y="348.2302606713778" text-anchor="end" alignment-baseline="middle" style="font-family: Arial, sans-serif; font-size: 10px; fill: black; font-weight: bold;">Wind</text><text x="283.6363636363636" y="331.8992056846667" text-anchor="middle" alignment-baseline="middle" style="font-family: Arial, sans-serif; font-size: 10px; fill: black; font-weight: bold;">Nuclear</text><text x="709.0909090909091" y="559.4537075841778" text-anchor="middle" alignment-baseline="middle" style="font-family: Arial, sans-serif; font-size: 10px; fill: black; font-weight: bold;">Other renewables excluding bioenergy</text><text x="732.7272727272727" y="478.7574161856889" text-anchor="middle" alignment-baseline="middle" style="font-family: Arial, sans-serif; font-size: 10px; fill: black; font-weight: bold;">Bioenergy</text></g></g><text x="4" y="4" style="font-family: Arial, sans-serif; font-size: 12px; fill: black; font-weight: bold; dominant-baseline: hanging;"/></g><g id="grid"><rect x="0" y="0" width="800" height="600" fill="none" stroke="#ccc"/></g></g></svg>